{
    "asset" : {
        "generator" : "Khronos glTF Blender I/O v1.2.75",
        "version" : "2.0"
    },
    "scene" : 0,
    "scenes" : [
        {
            "name" : "Scene",
            "nodes" : [
                0,
                1,
                2,
                3,
                4,
                5
            ]
        }
    ],
    "nodes" : [
        {
            "mesh" : 0,
            "name" : "3 parella final",
            "rotation" : [
                0.5,
                0.5,
                -0.5,
                0.4999999701976776
            ],
            "scale" : [
                2.17728328704834,
                1,
                2.8638265132904053
            ],
            "translation" : [
                -21.44424057006836,
                4.8511762619018555,
                -7.176245212554932
            ]
        },
        {
            "mesh" : 1,
            "name" : "2 parella davant",
            "rotation" : [
                0.5,
                0.5,
                -0.5,
                0.4999999701976776
            ],
            "scale" : [
                2.17728328704834,
                1.0000090599060059,
                2.8638265132904053
            ],
            "translation" : [
                -6.398064613342285,
                4.8622846603393555,
                -7.18982458114624
            ]
        },
        {
            "mesh" : 2,
            "name" : "1 grup",
            "rotation" : [
                0.5,
                0.5,
                -0.5,
                0.4999999701976776
            ],
            "scale" : [
                2.17728328704834,
                1.0000046491622925,
                2.8638265132904053
            ],
            "translation" : [
                -0.015623629093170166,
                4.8827972412109375,
                -7.214898586273193
            ]
        },
        {
            "mesh" : 3,
            "name" : "7 terra noia",
            "scale" : [
                1.94427490234375,
                0.9906406402587891,
                6.5
            ],
            "translation" : [
                -1.966449499130249,
                0,
                -7.1403117179870605
            ]
        },
        {
            "mesh" : 4,
            "name" : "8 terra taula",
            "scale" : [
                1.138999104499817,
                1,
                6.5
            ],
            "translation" : [
                -7.539281845092773,
                0,
                -7.1521782875061035
            ]
        },
        {
            "mesh" : 5,
            "name" : "Plane.001",
            "scale" : [
                1.067119836807251,
                1,
                6.5
            ],
            "translation" : [
                -22.519620895385742,
                0,
                -7.1521782875061035
            ]
        }
    ],
    "materials" : [
        {
            "alphaCutoff" : 0.5,
            "alphaMode" : "MASK",
            "doubleSided" : true,
            "emissiveFactor" : [
                0,
                0,
                0
            ],
            "name" : "Material.001",
            "pbrMetallicRoughness" : {
                "baseColorTexture" : {
                    "index" : 0,
                    "texCoord" : 0
                },
                "metallicFactor" : 0,
                "roughnessFactor" : 0.5
            }
        },
        {
            "alphaCutoff" : 0.5,
            "alphaMode" : "MASK",
            "doubleSided" : true,
            "emissiveFactor" : [
                0,
                0,
                0
            ],
            "name" : "Material.004",
            "pbrMetallicRoughness" : {
                "baseColorTexture" : {
                    "index" : 1,
                    "texCoord" : 0
                },
                "metallicFactor" : 0,
                "roughnessFactor" : 0.5
            }
        },
        {
            "alphaCutoff" : 0.5,
            "alphaMode" : "MASK",
            "doubleSided" : true,
            "emissiveFactor" : [
                0,
                0,
                0
            ],
            "name" : "Material.006",
            "pbrMetallicRoughness" : {
                "baseColorTexture" : {
                    "index" : 2,
                    "texCoord" : 0
                },
                "metallicFactor" : 0,
                "roughnessFactor" : 0.5
            }
        },
        {
            "doubleSided" : true,
            "emissiveFactor" : [
                0,
                0,
                0
            ],
            "name" : "Material",
            "pbrMetallicRoughness" : {
                "baseColorFactor" : [
                    0.800000011920929,
                    0.800000011920929,
                    0.800000011920929,
                    1
                ],
                "metallicFactor" : 0,
                "roughnessFactor" : 0.5
            }
        },
        {
            "doubleSided" : true,
            "emissiveFactor" : [
                0,
                0,
                0
            ],
            "name" : "Material.009",
            "pbrMetallicRoughness" : {
                "baseColorFactor" : [
                    0.800000011920929,
                    0.800000011920929,
                    0.800000011920929,
                    1
                ],
                "metallicFactor" : 0,
                "roughnessFactor" : 0.5
            }
        },
        {
            "doubleSided" : true,
            "emissiveFactor" : [
                0,
                0,
                0
            ],
            "name" : "Material.010",
            "pbrMetallicRoughness" : {
                "baseColorFactor" : [
                    0.800000011920929,
                    0.800000011920929,
                    0.800000011920929,
                    1
                ],
                "metallicFactor" : 0,
                "roughnessFactor" : 0.5
            }
        }
    ],
    "meshes" : [
        {
            "name" : "Plane.001",
            "primitives" : [
                {
                    "attributes" : {
                        "POSITION" : 0,
                        "NORMAL" : 1,
                        "TEXCOORD_0" : 2
                    },
                    "indices" : 3,
                    "material" : 0
                }
            ]
        },
        {
            "name" : "Plane.004",
            "primitives" : [
                {
                    "attributes" : {
                        "POSITION" : 4,
                        "NORMAL" : 5,
                        "TEXCOORD_0" : 6
                    },
                    "indices" : 3,
                    "material" : 1
                }
            ]
        },
        {
            "name" : "Plane.006",
            "primitives" : [
                {
                    "attributes" : {
                        "POSITION" : 7,
                        "NORMAL" : 8,
                        "TEXCOORD_0" : 9
                    },
                    "indices" : 3,
                    "material" : 2
                }
            ]
        },
        {
            "name" : "Plane",
            "primitives" : [
                {
                    "attributes" : {
                        "POSITION" : 10,
                        "NORMAL" : 11,
                        "TEXCOORD_0" : 12
                    },
                    "indices" : 3,
                    "material" : 3
                }
            ]
        },
        {
            "name" : "Plane.007",
            "primitives" : [
                {
                    "attributes" : {
                        "POSITION" : 13,
                        "NORMAL" : 14,
                        "TEXCOORD_0" : 15
                    },
                    "indices" : 3,
                    "material" : 4
                }
            ]
        },
        {
            "name" : "Plane.010",
            "primitives" : [
                {
                    "attributes" : {
                        "POSITION" : 16,
                        "NORMAL" : 17,
                        "TEXCOORD_0" : 18
                    },
                    "indices" : 3,
                    "material" : 5
                }
            ]
        }
    ],
    "textures" : [
        {
            "source" : 0
        },
        {
            "source" : 1
        },
        {
            "source" : 2
        }
    ],
    "images" : [
        {
            "bufferView" : 4,
            "mimeType" : "image/png",
            "name" : "03ParellaFons_16471f25"
        },
        {
            "bufferView" : 8,
            "mimeType" : "image/png",
            "name" : "02ParellaDretAsseguda_16471f25"
        },
        {
            "bufferView" : 12,
            "mimeType" : "image/png",
            "name" : "01Grupdavant_16471f25"
        }
    ],
    "accessors" : [
        {
            "bufferView" : 0,
            "componentType" : 5126,
            "count" : 4,
            "max" : [
                2.9853718280792236,
                0,
                1.7022678852081299
            ],
            "min" : [
                -2.9853718280792236,
                0,
                -1.7022678852081299
            ],
            "type" : "VEC3"
        },
        {
            "bufferView" : 1,
            "componentType" : 5126,
            "count" : 4,
            "type" : "VEC3"
        },
        {
            "bufferView" : 2,
            "componentType" : 5126,
            "count" : 4,
            "type" : "VEC2"
        },
        {
            "bufferView" : 3,
            "componentType" : 5123,
            "count" : 6,
            "type" : "SCALAR"
        },
        {
            "bufferView" : 5,
            "componentType" : 5126,
            "count" : 4,
            "max" : [
                2.9853718280792236,
                0,
                1.7022678852081299
            ],
            "min" : [
                -2.9853718280792236,
                0,
                -1.7022678852081299
            ],
            "type" : "VEC3"
        },
        {
            "bufferView" : 6,
            "componentType" : 5126,
            "count" : 4,
            "type" : "VEC3"
        },
        {
            "bufferView" : 7,
            "componentType" : 5126,
            "count" : 4,
            "type" : "VEC2"
        },
        {
            "bufferView" : 9,
            "componentType" : 5126,
            "count" : 4,
            "max" : [
                2.9853718280792236,
                0,
                1.7022678852081299
            ],
            "min" : [
                -2.9853718280792236,
                0,
                -1.7022678852081299
            ],
            "type" : "VEC3"
        },
        {
            "bufferView" : 10,
            "componentType" : 5126,
            "count" : 4,
            "type" : "VEC3"
        },
        {
            "bufferView" : 11,
            "componentType" : 5126,
            "count" : 4,
            "type" : "VEC2"
        },
        {
            "bufferView" : 13,
            "componentType" : 5126,
            "count" : 4,
            "max" : [
                1,
                0,
                1
            ],
            "min" : [
                -1,
                0,
                -1
            ],
            "type" : "VEC3"
        },
        {
            "bufferView" : 14,
            "componentType" : 5126,
            "count" : 4,
            "type" : "VEC3"
        },
        {
            "bufferView" : 15,
            "componentType" : 5126,
            "count" : 4,
            "type" : "VEC2"
        },
        {
            "bufferView" : 16,
            "componentType" : 5126,
            "count" : 4,
            "max" : [
                1,
                0,
                1
            ],
            "min" : [
                -1,
                0,
                -1
            ],
            "type" : "VEC3"
        },
        {
            "bufferView" : 17,
            "componentType" : 5126,
            "count" : 4,
            "type" : "VEC3"
        },
        {
            "bufferView" : 18,
            "componentType" : 5126,
            "count" : 4,
            "type" : "VEC2"
        },
        {
            "bufferView" : 19,
            "componentType" : 5126,
            "count" : 4,
            "max" : [
                1,
                0,
                1
            ],
            "min" : [
                -1,
                0,
                -1
            ],
            "type" : "VEC3"
        },
        {
            "bufferView" : 20,
            "componentType" : 5126,
            "count" : 4,
            "type" : "VEC3"
        },
        {
            "bufferView" : 21,
            "componentType" : 5126,
            "count" : 4,
            "type" : "VEC2"
        }
    ],
    "bufferViews" : [
        {
            "buffer" : 0,
            "byteLength" : 48,
            "byteOffset" : 0
        },
        {
            "buffer" : 0,
            "byteLength" : 48,
            "byteOffset" : 48
        },
        {
            "buffer" : 0,
            "byteLength" : 32,
            "byteOffset" : 96
        },
        {
            "buffer" : 0,
            "byteLength" : 12,
            "byteOffset" : 128
        },
        {
            "buffer" : 0,
            "byteLength" : 238784,
            "byteOffset" : 140
        },
        {
            "buffer" : 0,
            "byteLength" : 48,
            "byteOffset" : 238924
        },
        {
            "buffer" : 0,
            "byteLength" : 48,
            "byteOffset" : 238972
        },
        {
            "buffer" : 0,
            "byteLength" : 32,
            "byteOffset" : 239020
        },
        {
            "buffer" : 0,
            "byteLength" : 304502,
            "byteOffset" : 239052
        },
        {
            "buffer" : 0,
            "byteLength" : 48,
            "byteOffset" : 543556
        },
        {
            "buffer" : 0,
            "byteLength" : 48,
            "byteOffset" : 543604
        },
        {
            "buffer" : 0,
            "byteLength" : 32,
            "byteOffset" : 543652
        },
        {
            "buffer" : 0,
            "byteLength" : 948765,
            "byteOffset" : 543684
        },
        {
            "buffer" : 0,
            "byteLength" : 48,
            "byteOffset" : 1492452
        },
        {
            "buffer" : 0,
            "byteLength" : 48,
            "byteOffset" : 1492500
        },
        {
            "buffer" : 0,
            "byteLength" : 32,
            "byteOffset" : 1492548
        },
        {
            "buffer" : 0,
            "byteLength" : 48,
            "byteOffset" : 1492580
        },
        {
            "buffer" : 0,
            "byteLength" : 48,
            "byteOffset" : 1492628
        },
        {
            "buffer" : 0,
            "byteLength" : 32,
            "byteOffset" : 1492676
        },
        {
            "buffer" : 0,
            "byteLength" : 48,
            "byteOffset" : 1492708
        },
        {
            "buffer" : 0,
            "byteLength" : 48,
            "byteOffset" : 1492756
        },
        {
            "buffer" : 0,
            "byteLength" : 32,
            "byteOffset" : 1492804
        }
    ],
    "buffers" : [
        {
            "byteLength" : 1492836,
            "uri" : "data:application/octet-stream;base64,"
        }
    ]
}
